<svg width="1455" height="820" viewBox="0 0 1455 820" fill="none" xmlns="http://www.w3.org/2000/svg">
<g opacity="0.8">
<path opacity="0.0344828" d="M1078.22 -102.289C1081.35 -126.127 1113.76 -130.944 1123.69 -109.045L1308.85 299.487C1314.62 312.217 1329.45 318.072 1342.36 312.718L1756.67 140.887C1778.88 131.677 1799.25 157.335 1785.25 176.88L1524.03 541.499C1515.89 552.861 1518.24 568.632 1529.33 577.136L1885.3 850.027C1904.38 864.655 1892.34 895.131 1868.42 892.777L1422.04 848.864C1408.13 847.496 1395.64 857.411 1393.82 871.269L1335.48 1315.99C1332.35 1339.83 1299.94 1344.65 1290.01 1322.75L1104.86 914.216C1099.09 901.486 1084.26 895.63 1071.35 900.985L657.03 1072.82C634.822 1082.03 614.446 1056.37 628.448 1036.82L889.667 672.203C897.807 660.841 895.463 645.071 884.371 636.567L528.404 363.675C509.323 349.047 521.356 318.572 545.283 320.926L991.662 364.838C1005.57 366.207 1018.06 356.292 1019.88 342.434L1078.22 -102.289Z" stroke="#123E47" stroke-width="2"/>
<path opacity="0.0689655" d="M1116.45 -98.2093C1120.82 -121.852 1153.44 -124.966 1162.21 -102.577L1323.22 308.675C1328.32 321.69 1342.82 328.314 1355.99 323.642L1772.24 176.031C1794.91 167.996 1813.91 194.686 1798.9 213.471L1523.26 558.541C1514.53 569.461 1516.05 585.333 1526.68 594.405L1862.64 881.085C1880.93 896.691 1867.32 926.495 1843.55 922.892L1406.88 856.709C1393.07 854.615 1380.08 863.863 1377.54 877.607L1297.25 1311.9C1292.88 1335.54 1260.26 1338.65 1251.49 1316.27L1090.48 905.013C1085.38 891.998 1070.88 885.374 1057.71 890.046L641.453 1037.66C618.793 1045.69 599.788 1019 614.794 1000.22L890.441 655.147C899.165 644.227 897.649 628.355 887.017 619.283L551.057 332.603C532.767 316.997 546.379 287.193 570.15 290.796L1006.81 356.978C1020.63 359.073 1033.62 349.825 1036.16 336.081L1116.45 -98.2093Z" stroke="#123E47" stroke-width="2"/>
<path opacity="0.103448" d="M1153.9 -92.0891C1159.5 -115.47 1192.24 -116.873 1199.82 -94.0566L1336.92 318.527C1341.33 331.79 1355.46 339.164 1368.86 335.188L1785.67 211.523C1808.72 204.684 1826.3 232.332 1810.34 250.306L1521.58 575.331C1512.29 585.78 1512.98 601.709 1523.12 611.325L1838.62 910.458C1856.07 927.001 1840.92 956.052 1817.37 951.209L1391.51 863.651C1377.82 860.836 1364.36 869.392 1361.11 882.983L1259.8 1305.78C1254.2 1329.16 1221.46 1330.57 1213.88 1307.75L1076.78 895.166C1072.37 881.903 1058.24 874.529 1044.84 878.505L628.029 1002.17C604.98 1009.01 587.397 981.361 603.366 963.387L892.123 638.362C901.406 627.914 900.723 611.984 890.581 602.368L575.079 303.235C557.632 286.692 572.785 257.642 596.335 262.484L1022.19 350.043C1035.88 352.857 1049.34 344.302 1052.59 330.71L1153.9 -92.0891Z" stroke="#123E47" stroke-width="2"/>
<path opacity="0.137931" d="M1190.46 -84.007C1197.28 -107.063 1230.04 -106.75 1236.42 -83.5686L1349.91 328.987C1353.62 342.463 1367.35 350.567 1380.94 347.298L1796.95 247.226C1820.33 241.603 1836.44 270.133 1819.55 287.247L1519.02 591.814C1509.2 601.762 1509.05 617.706 1518.67 627.84L1813.35 938.084C1829.9 955.516 1813.25 983.734 1789.99 977.666L1375.96 869.677C1362.43 866.15 1348.55 873.99 1344.59 887.392L1223.24 1297.71C1216.42 1320.76 1183.66 1320.45 1177.28 1297.27L1063.79 884.714C1060.08 871.238 1046.35 863.135 1032.76 866.404L616.746 966.476C593.37 972.099 577.259 943.568 594.146 926.455L894.683 621.888C904.5 611.939 904.652 595.996 895.027 585.862L600.354 275.618C583.796 258.185 600.449 229.967 623.713 236.035L1037.74 344.024C1051.27 347.552 1065.15 339.712 1069.12 326.309L1190.46 -84.007Z" stroke="#123E47" stroke-width="2"/>
<path opacity="0.172414" d="M1226.02 -74.0498C1234.04 -96.7172 1266.74 -94.6904 1271.9 -71.2067L1362.17 340C1365.16 353.652 1378.45 362.462 1392.19 359.909L1806.11 283.004C1829.75 278.612 1844.34 307.947 1826.58 324.153L1515.6 607.934C1505.28 617.355 1504.29 633.268 1513.37 643.892L1786.93 963.9C1802.56 982.176 1784.45 1009.48 1761.53 1002.21L1360.28 874.78C1346.96 870.55 1332.69 877.652 1328.03 890.829L1187.67 1287.74C1179.66 1310.41 1146.95 1308.38 1141.8 1284.9L1051.53 873.693C1048.53 860.041 1035.24 851.23 1021.5 853.783L607.586 930.688C583.948 935.08 569.352 905.746 587.112 889.539L898.092 605.759C908.416 596.338 909.402 580.424 900.321 569.8L626.762 249.792C611.139 231.517 629.245 204.209 652.16 211.486L1053.41 338.913C1066.73 343.143 1081.01 336.04 1085.67 322.863L1226.02 -74.0498Z" stroke="#123E47" stroke-width="2"/>
<path opacity="0.206897" d="M1260.5 -62.2862C1269.7 -84.503 1302.25 -80.7674 1306.17 -57.0462L1373.67 351.53C1375.95 365.319 1388.76 374.814 1402.61 372.983L1813.16 318.748C1837 315.599 1850.04 345.657 1831.45 360.912L1511.37 623.66C1500.57 632.528 1498.75 648.368 1507.26 659.453L1759.51 987.88C1774.15 1006.95 1754.64 1033.27 1732.14 1024.8L1344.55 878.977C1331.47 874.055 1316.84 880.401 1311.5 893.316L1153.19 1275.98C1144 1298.2 1111.45 1294.46 1107.53 1270.74L1040.03 862.163C1037.75 848.373 1024.94 838.879 1011.08 840.709L600.534 894.945C576.698 898.093 563.657 868.035 582.241 852.78L902.326 590.032C913.129 581.164 914.947 565.324 906.433 554.239L654.19 225.812C639.545 206.744 659.056 180.421 681.559 188.888L1069.15 334.716C1082.23 339.637 1096.86 333.291 1102.2 320.376L1260.5 -62.2862Z" stroke="#123E47" stroke-width="2"/>
<path opacity="0.241379" d="M1293.81 -48.8059C1304.15 -70.5112 1336.47 -65.0772 1339.14 -41.1833L1384.4 363.524C1385.95 377.414 1398.25 387.566 1412.18 386.463L1818.14 354.332C1842.11 352.435 1853.56 383.134 1834.2 397.396L1506.35 638.949C1495.1 647.239 1492.45 662.962 1500.37 674.477L1731.18 1009.98C1744.81 1029.79 1723.95 1055.06 1701.92 1045.43L1328.8 882.271C1315.99 876.671 1301.05 882.243 1295.04 894.861L1119.89 1262.5C1109.55 1284.2 1077.24 1278.77 1074.56 1254.88L1029.3 850.169C1027.75 836.279 1015.45 826.127 1001.52 827.23L595.558 859.362C571.59 861.259 560.14 830.559 579.496 816.298L907.352 574.745C918.604 566.454 921.249 550.731 913.327 539.216L682.52 203.709C668.893 183.901 689.755 158.635 711.784 168.268L1084.9 331.422C1097.71 337.022 1112.65 331.45 1118.66 318.833L1293.81 -48.8059Z" stroke="#123E47" stroke-width="2"/>
<path opacity="0.275862" d="M1325.86 -33.696C1337.32 -54.8304 1369.3 -47.7127 1370.72 -23.7118L1394.34 375.938C1395.16 389.891 1406.91 400.672 1420.88 400.3L1821.08 389.642C1845.12 389.002 1854.95 420.259 1834.87 433.487L1500.57 653.763C1488.9 661.453 1485.43 677.017 1492.74 688.931L1702.08 1030.19C1714.65 1050.68 1692.49 1074.82 1671 1064.05L1313.08 884.676C1300.59 878.414 1285.38 883.196 1278.71 895.482L1087.84 1247.4C1076.38 1268.53 1044.4 1261.42 1042.98 1237.41L1019.36 837.765C1018.54 823.812 1006.79 813.031 992.82 813.403L592.614 824.061C568.58 824.701 558.753 793.444 578.829 780.216L913.129 559.94C924.8 552.25 928.263 536.686 920.955 524.773L711.623 183.514C699.051 163.019 721.207 138.88 742.701 149.652L1100.62 329.027C1113.11 335.289 1128.32 330.507 1134.98 318.221L1325.86 -33.696Z" stroke="#123E47" stroke-width="2"/>
<path opacity="0.310345" d="M1356.56 -17.0639C1369.12 -37.5694 1400.68 -28.7877 1400.84 -4.74535L1403.46 388.709C1403.56 402.686 1414.72 414.067 1428.7 414.426L1822.03 424.551C1846.06 425.17 1854.24 456.898 1833.5 469.058L1494.07 668.055C1482.01 675.123 1477.74 690.484 1484.41 702.764L1672.31 1048.46C1683.79 1069.59 1660.4 1092.53 1639.5 1080.65L1297.45 886.193C1285.3 879.285 1269.86 883.265 1262.56 895.185L1057.13 1230.76C1044.58 1251.26 1013.01 1242.48 1012.85 1218.44L1010.23 824.986C1010.14 811.01 998.97 799.628 984.998 799.269L591.665 789.144C567.63 788.525 559.452 756.797 580.193 744.637L919.624 545.641C931.682 538.572 935.955 523.211 929.281 510.931L741.382 165.232C729.901 144.108 753.289 121.162 774.191 133.044L1116.24 327.502C1128.39 334.41 1143.83 330.43 1151.13 318.51L1356.56 -17.0639Z" stroke="#123E47" stroke-width="2"/>
<path opacity="0.344828" d="M1385.87 0.999931C1399.48 -18.8205 1430.54 -8.39871 1429.44 15.619L1411.78 401.795C1411.14 415.757 1421.7 427.707 1435.63 428.797L1821.03 458.957C1845 460.833 1851.51 492.945 1830.16 504.003L1486.89 681.796C1474.48 688.224 1469.41 703.34 1475.43 715.953L1642.01 1064.8C1652.37 1086.5 1627.82 1108.19 1607.57 1095.23L1281.96 886.844C1270.19 879.31 1254.56 882.476 1246.65 893.998L1027.83 1212.69C1014.22 1232.51 983.156 1222.08 984.254 1198.07L1001.92 811.891C1002.55 797.929 991.998 785.979 978.064 784.889L592.663 754.729C568.693 752.854 562.187 720.741 583.536 709.683L926.805 531.89C939.216 525.462 944.287 510.346 938.264 497.733L771.682 148.886C761.322 127.19 785.879 105.499 806.13 118.459L1131.74 326.842C1143.51 334.376 1159.14 331.21 1167.05 319.688L1385.87 0.999931Z" stroke="#123E47" stroke-width="2"/>
<path opacity="0.37931" d="M1413.7 20.4037C1428.32 1.32274 1458.8 13.356 1456.45 37.2833L1419.27 415.155C1417.9 429.065 1427.82 441.551 1441.68 443.369L1818.15 492.762C1841.98 495.889 1846.8 528.299 1824.9 538.224L1479.07 694.966C1466.34 700.736 1460.48 715.566 1465.84 728.476L1611.3 1079.21C1620.51 1101.41 1594.85 1121.79 1575.3 1107.79L1266.64 886.659C1255.28 878.519 1239.51 880.863 1231.01 891.955L999.998 1193.29C985.37 1212.37 954.895 1200.34 957.249 1176.41L994.422 798.539C995.79 784.63 985.875 772.144 972.017 770.325L595.548 720.933C571.709 717.805 566.892 685.396 588.791 675.471L934.624 518.728C947.355 512.958 953.21 498.128 947.856 485.218L802.396 134.489C793.186 112.281 818.845 91.9045 838.389 105.907L1147.05 327.036C1158.41 335.175 1174.18 332.832 1182.69 321.739L1413.7 20.4037Z" stroke="#123E47" stroke-width="2"/>
<path opacity="0.413793" d="M1439.99 41.0329C1455.6 22.7436 1485.41 36.3553 1481.8 60.1267L1425.93 428.729C1423.84 442.548 1433.09 455.536 1446.83 458.077L1813.43 525.853C1837.07 530.224 1840.19 562.841 1817.8 571.607L1470.65 707.525C1457.63 712.621 1451.01 727.124 1455.68 740.297L1580.28 1091.67C1588.32 1114.33 1561.63 1133.34 1542.84 1118.33L1251.56 885.646C1240.64 876.922 1224.77 878.438 1215.69 889.07L973.698 1172.67C958.092 1190.95 928.288 1177.34 931.891 1153.57L987.758 784.97C989.852 771.151 980.604 758.163 966.86 755.622L600.261 687.845C576.619 683.475 573.505 650.858 595.893 642.092L943.046 506.173C956.06 501.078 962.684 486.575 958.013 473.402L833.409 122.029C825.373 99.3687 852.063 80.3635 870.849 95.3694L1162.13 328.053C1173.05 336.776 1188.93 335.261 1198 324.629L1439.99 41.0329Z" stroke="#123E47" stroke-width="2"/>
<path opacity="0.448276" d="M1464.71 62.7774C1481.25 45.33 1510.31 60.4829 1505.46 84.0331L1431.77 442.464C1428.95 456.154 1437.51 469.608 1451.1 472.865L1806.96 558.131C1830.34 563.733 1831.74 596.468 1808.92 604.05L1461.67 719.443C1448.4 723.851 1441.03 737.987 1445 751.386L1549.09 1102.2C1555.93 1125.25 1528.28 1142.83 1510.31 1126.86L1236.74 883.826C1226.3 874.543 1210.37 875.225 1200.75 885.368L948.979 1150.91C932.437 1168.36 903.386 1153.21 908.228 1129.66L981.924 771.229C984.738 757.538 976.183 744.084 962.591 740.828L606.735 655.561C583.354 649.959 581.951 617.224 604.768 609.642L952.025 494.249C965.289 489.842 972.662 475.705 968.687 462.306L864.602 111.493C857.763 88.443 885.411 70.8607 903.385 86.8292L1176.95 329.867C1187.4 339.149 1203.33 338.467 1212.94 328.324L1464.71 62.7774Z" stroke="#123E47" stroke-width="2"/>
<path opacity="0.482759" d="M1487.81 85.5416C1505.24 68.9838 1533.46 85.6363 1527.39 108.901L1436.78 456.322C1433.25 469.846 1441.09 483.73 1454.49 487.694L1798.8 589.515C1821.85 596.333 1821.54 629.097 1798.36 635.474L1452.17 730.709C1438.7 734.416 1430.59 748.147 1433.86 761.737L1517.84 1110.82C1523.46 1134.2 1494.93 1150.31 1477.81 1133.42L1222.25 881.237C1212.3 871.42 1196.35 871.268 1186.22 880.893L925.889 1128.16C908.456 1144.72 880.238 1128.06 886.306 1104.8L976.922 757.378C980.449 743.854 972.609 729.971 959.206 726.007L614.902 624.186C591.846 617.367 592.159 584.604 615.341 578.226L961.524 482.991C975 479.284 983.104 465.553 979.835 451.964L895.863 102.877C890.239 79.5011 918.77 63.3898 935.884 80.2771L1191.45 332.464C1201.4 342.281 1217.34 342.433 1227.48 332.807L1487.81 85.5416Z" stroke="#123E47" stroke-width="2"/>
<path opacity="0.517241" d="M1509.24 109.202C1527.52 93.5796 1554.82 111.686 1547.55 134.601L1440.96 470.243C1436.73 483.564 1443.83 497.839 1457.01 502.499L1789.02 619.905C1811.69 627.92 1809.66 660.623 1786.18 665.778L1442.21 741.289C1428.55 744.286 1419.74 757.574 1422.3 771.315L1486.63 1117.55C1491.02 1141.19 1461.68 1155.78 1445.48 1138.03L1208.1 877.894C1198.68 867.57 1182.76 866.583 1172.14 875.665L904.456 1104.49C886.181 1120.12 858.873 1102.01 866.15 1079.1L972.741 743.453C976.972 730.132 969.869 715.858 956.692 711.198L624.678 593.792C602.011 585.776 604.038 553.074 627.521 547.919L971.491 472.408C985.143 469.411 993.954 456.123 991.401 442.381L927.071 96.146C922.679 72.5077 952.013 57.9117 968.22 75.6715L1205.6 335.803C1215.02 346.127 1230.93 347.113 1241.56 338.031L1509.24 109.202Z" stroke="#123E47" stroke-width="2"/>
<path opacity="0.551724" d="M1528.98 133.656C1548.05 119.011 1574.37 138.522 1565.9 161.025L1444.32 484.186C1439.4 497.267 1445.74 511.894 1458.66 517.237L1777.71 649.227C1799.93 658.418 1796.19 690.969 1772.47 694.888L1431.81 751.171C1418.02 753.45 1408.53 766.259 1410.36 780.115L1455.58 1122.42C1458.73 1146.25 1428.67 1159.29 1413.41 1140.71L1194.34 873.833C1185.47 863.03 1169.63 861.212 1158.55 869.726L884.716 1080.04C865.648 1094.68 839.325 1075.17 847.792 1052.67L969.379 729.509C974.3 716.428 967.955 701.801 955.04 696.458L635.987 564.468C613.77 555.277 617.506 522.726 641.227 518.807L981.885 462.524C995.675 460.245 1005.17 447.436 1003.34 433.58L958.119 91.2771C954.97 67.4413 985.029 54.4006 1000.28 72.9843L1219.36 339.862C1228.22 350.665 1244.06 352.483 1255.15 343.969L1528.98 133.656Z" stroke="#123E47" stroke-width="2"/>
<path opacity="0.586207" d="M1547.01 158.793C1566.81 145.166 1592.08 166.028 1582.45 188.057L1446.87 498.104C1441.27 510.91 1446.84 525.849 1459.46 531.86L1764.96 677.406C1786.66 687.747 1781.23 720.059 1757.33 722.731L1421.04 760.343C1407.15 761.897 1397 774.191 1398.1 788.125L1424.8 1125.46C1426.69 1149.43 1396 1160.88 1381.73 1141.52L1181.01 869.089C1172.72 857.836 1157 855.192 1145.48 863.114L866.691 1054.91C846.883 1068.53 821.617 1047.67 831.25 1025.64L966.825 715.594C972.425 702.789 966.853 687.85 954.235 681.838L648.742 536.292C627.036 525.951 632.47 493.639 656.364 490.967L992.661 453.355C1006.55 451.801 1016.7 439.507 1015.6 425.574L988.9 88.2358C987.003 64.2679 1017.7 52.8181 1031.96 72.1747L1232.68 344.61C1240.97 355.862 1256.7 358.506 1268.21 350.585L1547.01 158.793Z" stroke="#123E47" stroke-width="2"/>
<path opacity="0.62069" d="M1563.3 184.495C1583.8 171.924 1607.94 194.079 1597.16 215.574L1448.63 511.946C1442.37 524.442 1447.15 539.652 1459.44 546.315L1750.84 704.368C1771.98 715.831 1764.86 747.814 1740.86 749.232L1409.93 768.786C1395.98 769.611 1385.19 781.357 1385.57 795.329L1394.39 1126.72C1395.03 1150.75 1363.77 1160.58 1350.55 1140.51L1168.15 863.687C1160.46 852.017 1144.89 848.553 1132.98 855.861L850.397 1029.2C829.903 1041.77 805.764 1019.62 816.536 998.121L965.068 701.749C971.33 689.253 966.548 674.043 954.262 667.38L662.856 509.327C641.721 497.864 648.839 465.881 672.84 464.463L1003.77 444.909C1017.72 444.084 1028.51 432.338 1028.13 418.366L1019.31 86.9744C1018.67 62.9401 1049.92 53.1127 1063.15 73.1891L1245.55 350.008C1253.24 361.678 1268.81 365.142 1280.72 357.834L1563.3 184.495Z" stroke="#123E47" stroke-width="2"/>
<path opacity="0.655172" d="M1577.86 210.659C1598.98 199.177 1621.93 222.566 1610.05 243.467L1449.61 525.676C1442.7 537.826 1446.68 553.265 1458.6 560.563L1735.47 730.056C1755.97 742.609 1747.19 774.176 1723.15 774.336L1398.53 776.498C1384.55 776.591 1373.17 787.757 1372.81 801.729L1364.46 1126.25C1363.84 1150.28 1332.11 1158.46 1319.95 1137.72L1155.77 857.672C1148.7 845.615 1133.34 841.341 1121.06 848.016L835.843 1003.04C814.719 1014.52 791.773 991.134 803.655 970.232L964.092 688.024C971 675.873 967.02 660.434 955.1 653.137L678.236 483.643C657.73 471.09 666.512 439.524 690.554 439.363L1015.17 437.202C1029.15 437.109 1040.53 425.942 1040.89 411.97L1049.24 87.4524C1049.86 63.4176 1081.59 55.2395 1093.75 75.9807L1257.93 356.027C1265 368.085 1280.36 372.358 1292.64 365.684L1577.86 210.659Z" stroke="#123E47" stroke-width="2"/>
<path opacity="0.689655" d="M1590.69 237.16C1612.38 226.799 1634.08 251.357 1621.12 271.608L1449.84 539.235C1442.31 551.007 1445.47 566.634 1456.99 574.545L1718.93 754.399C1738.75 768.009 1728.33 799.072 1704.31 797.974L1386.9 783.458C1372.94 782.819 1360.99 793.375 1359.9 807.309L1335.11 1124.08C1333.24 1148.05 1301.12 1154.56 1290.07 1133.21L1143.93 851.066C1137.5 838.655 1122.39 833.583 1109.78 839.606L823.048 976.525C801.352 986.885 779.661 962.328 792.621 942.077L963.897 674.45C971.431 662.678 968.265 647.051 956.743 639.14L694.804 459.285C674.983 445.676 685.405 414.613 709.423 415.711L1026.83 430.227C1040.79 430.865 1052.74 420.31 1053.84 406.376L1078.62 89.6029C1080.5 65.6333 1112.61 59.127 1123.67 80.4762L1269.8 362.619C1276.23 375.03 1291.35 380.101 1303.96 374.079L1590.69 237.16Z" stroke="#123E47" stroke-width="2"/>
<path opacity="0.724138" d="M1601.76 263.907C1623.97 254.696 1644.35 280.355 1630.34 299.9L1449.31 552.6C1441.17 563.962 1443.51 579.733 1454.6 588.237L1701.31 777.365C1720.39 791.993 1708.35 822.469 1684.43 820.115L1375.06 789.681C1361.15 788.312 1348.67 798.228 1346.85 812.086L1306.41 1120.3C1303.28 1144.14 1270.87 1148.96 1260.95 1127.06L1132.62 843.924C1126.85 831.194 1112.02 825.338 1099.11 830.693L811.97 949.781C789.762 958.991 769.386 933.332 783.388 913.788L964.427 661.087C972.567 649.725 970.223 633.954 959.13 625.451L712.426 436.322C693.345 421.694 705.378 391.219 729.306 393.573L1038.67 424.007C1052.58 425.375 1065.07 415.46 1066.88 401.602L1107.32 93.3856C1110.45 69.547 1142.86 64.7303 1152.78 86.6289L1281.11 369.763C1286.88 382.494 1301.71 388.349 1314.62 382.995L1601.76 263.907Z" stroke="#123E47" stroke-width="2"/>
<path opacity="0.758621" d="M1611.11 290.778C1633.77 282.743 1652.78 309.433 1637.77 328.218L1448.05 565.719C1439.33 576.639 1440.84 592.511 1451.48 601.583L1682.71 798.896C1701 814.503 1687.38 844.307 1663.61 840.704L1363.07 795.152C1349.25 793.058 1336.26 802.306 1333.72 816.05L1278.46 1114.96C1274.09 1138.6 1241.47 1141.71 1232.71 1119.33L1121.89 836.274C1116.79 823.259 1102.29 816.635 1089.11 821.307L802.621 922.903C779.961 930.938 760.956 904.248 775.962 885.463L965.681 647.962C974.404 637.042 972.889 621.17 962.257 612.098L731.026 414.785C712.736 399.179 726.348 369.375 750.12 372.978L1050.66 418.529C1064.48 420.624 1077.47 411.375 1080.01 397.632L1135.27 98.723C1139.64 75.0808 1172.26 71.9668 1181.02 94.3549L1291.85 377.407C1296.94 390.422 1311.44 397.046 1324.62 392.374L1611.11 290.778Z" stroke="#123E47" stroke-width="2"/>
<path opacity="0.793103" d="M1618.75 317.679C1641.8 310.84 1659.38 338.489 1643.41 356.463L1446.1 578.563C1436.81 589.011 1437.5 604.941 1447.64 614.557L1663.23 818.965C1680.68 835.507 1665.53 864.558 1641.98 859.716L1350.97 799.884C1337.28 797.069 1323.83 805.625 1320.57 819.217L1251.35 1108.13C1245.74 1131.51 1213.01 1132.91 1205.43 1110.1L1111.74 828.165C1107.33 814.901 1093.2 807.528 1079.8 811.503L794.98 896.008C771.93 902.847 754.348 875.199 770.316 857.225L967.634 635.125C976.917 624.676 976.234 608.746 966.091 599.13L750.499 394.722C733.051 378.18 748.204 349.129 771.755 353.971L1062.76 413.803C1076.45 416.618 1089.9 408.062 1093.16 394.47L1162.38 105.558C1167.99 82.1769 1200.72 80.7742 1208.3 103.59L1301.99 385.522C1306.4 398.786 1320.53 406.16 1333.93 402.184L1618.75 317.679Z" stroke="#123E47" stroke-width="2"/>
<path opacity="0.827586" d="M1624.71 344.494C1648.08 338.871 1664.2 367.401 1647.31 384.515L1443.47 591.084C1433.66 601.032 1433.5 616.976 1443.13 627.11L1642.99 837.529C1659.55 854.962 1642.89 883.18 1619.63 877.112L1338.82 803.869C1325.29 800.342 1311.41 808.182 1307.45 821.585L1225.15 1099.88C1218.33 1122.93 1185.56 1122.62 1179.19 1099.44L1102.21 819.627C1098.5 806.151 1084.77 798.048 1071.18 801.317L789.025 869.189C765.649 874.812 749.537 846.282 766.425 829.168L970.261 622.599C980.078 612.651 980.23 596.707 970.604 586.573L770.746 376.154C754.188 358.721 770.841 330.503 794.105 336.571L1074.92 409.814C1088.44 413.341 1102.32 405.501 1106.29 392.098L1188.59 113.806C1195.41 90.7501 1228.17 91.0626 1234.55 114.244L1311.52 394.056C1315.23 407.532 1328.96 415.635 1342.55 412.366L1624.71 344.494Z" stroke="#123E47" stroke-width="2"/>
<path opacity="0.862069" d="M1629.01 371.128C1652.65 366.736 1667.24 396.07 1649.48 412.277L1440.2 603.255C1429.88 612.676 1428.89 628.589 1437.97 639.213L1622.07 854.572C1637.69 872.847 1619.59 900.155 1596.67 892.878L1326.64 807.123C1313.32 802.892 1299.04 809.995 1294.38 823.172L1199.93 1090.29C1191.91 1112.95 1159.21 1110.93 1154.06 1087.44L1093.3 810.709C1090.31 797.058 1077.02 788.247 1063.28 790.8L784.723 842.555C761.084 846.947 746.488 817.613 764.248 801.406L973.531 610.428C983.855 601.007 984.841 585.094 975.759 574.47L791.66 359.112C776.038 340.836 794.144 313.528 817.059 320.806L1087.09 406.561C1100.41 410.791 1114.69 403.688 1119.35 390.511L1213.8 123.398C1221.82 100.73 1254.52 102.757 1259.68 126.241L1320.43 402.974C1323.42 416.625 1336.71 425.436 1350.45 422.883L1629.01 371.128Z" stroke="#123E47" stroke-width="2"/>
<path opacity="0.896552" d="M1631.69 397.487C1655.53 394.338 1668.57 424.396 1649.99 439.651L1436.32 615.046C1425.51 623.914 1423.7 639.754 1432.21 650.839L1600.59 870.078C1615.24 889.146 1595.73 915.469 1573.22 907.002L1314.49 809.656C1301.41 804.734 1286.78 811.08 1281.44 823.995L1175.77 1079.44C1166.57 1101.66 1134.02 1097.92 1130.1 1074.2L1085.04 801.457C1082.76 787.667 1069.95 778.173 1056.1 780.004L782.04 816.208C758.204 819.357 745.164 789.298 763.747 774.044L977.417 598.648C988.22 589.78 990.038 573.94 981.525 562.856L813.142 343.617C798.497 324.549 818.008 298.226 840.511 306.692L1099.24 404.038C1112.32 408.96 1126.95 402.614 1132.29 389.699L1237.97 134.256C1247.16 112.039 1279.71 115.775 1283.63 139.496L1328.69 412.238C1330.97 426.027 1343.78 435.522 1357.64 433.691L1631.69 397.487Z" stroke="#123E47" stroke-width="2"/>
<path opacity="0.931035" d="M1632.8 423.456C1656.77 421.559 1668.22 452.259 1648.86 466.52L1431.85 626.409C1420.59 634.7 1417.95 650.423 1425.87 661.938L1578.65 884.017C1592.28 903.826 1571.41 929.091 1549.38 919.459L1302.41 811.463C1289.6 805.863 1274.66 811.435 1268.65 824.053L1152.71 1067.4C1142.37 1089.11 1110.06 1083.67 1107.39 1059.78L1077.43 791.893C1075.88 778.003 1063.58 767.852 1049.65 768.954L780.933 790.223C756.965 792.12 745.515 761.42 764.872 747.159L981.887 587.27C993.139 578.979 995.783 563.256 987.862 551.741L835.085 329.662C821.458 309.853 842.32 284.588 864.349 294.22L1111.32 402.216C1124.13 407.816 1139.07 402.244 1145.08 389.626L1261.02 146.278C1271.36 124.573 1303.67 130.007 1306.34 153.901L1336.3 421.786C1337.86 435.676 1350.15 445.827 1364.09 444.725L1632.8 423.456Z" stroke="#123E47" stroke-width="2"/>
<path opacity="0.965517" d="M1632.38 448.971C1656.41 448.331 1666.24 479.588 1646.16 492.816L1426.83 637.341C1415.16 645.031 1411.69 660.595 1419 672.509L1556.35 896.412C1568.92 916.906 1546.76 941.045 1525.27 930.273L1290.44 812.584C1277.94 806.322 1262.73 811.104 1256.07 823.39L1130.83 1054.29C1119.37 1075.42 1087.39 1068.3 1085.97 1044.3L1070.48 782.087C1069.65 768.135 1057.91 757.354 1043.93 757.726L781.356 764.718C757.321 765.358 747.494 734.102 767.57 720.873L986.907 576.348C998.578 568.658 1002.04 553.095 994.734 541.181L857.389 317.278C844.817 296.783 866.973 272.644 888.467 283.417L1123.3 401.106C1135.79 407.368 1151 402.586 1157.67 390.3L1282.9 159.404C1294.36 138.27 1326.35 145.387 1327.76 169.388L1343.26 431.602C1344.08 445.555 1355.83 456.336 1369.8 455.964L1632.38 448.971Z" stroke="#123E47" stroke-width="2"/>
<path d="M1630.48 473.926C1654.51 474.545 1662.69 506.273 1641.95 518.433L1421.29 647.799C1409.23 654.868 1404.96 670.229 1411.63 682.509L1533.78 907.245C1545.27 928.369 1521.88 951.316 1500.98 939.433L1278.61 813.017C1266.46 806.11 1251.02 810.089 1243.72 822.01L1110.17 1040.16C1097.62 1060.67 1066.05 1051.89 1065.89 1027.85L1064.19 772.063C1064.1 758.087 1052.93 746.706 1038.96 746.346L783.255 739.764C759.22 739.145 751.042 707.417 771.783 695.257L992.445 565.891C1004.5 558.822 1008.78 543.462 1002.1 531.182L879.95 306.446C868.468 285.321 891.857 262.375 912.758 274.257L1135.12 400.673C1147.27 407.581 1162.71 403.601 1170.01 391.681L1303.56 173.527C1316.12 153.021 1347.68 161.803 1347.84 185.845L1349.55 441.627C1349.64 455.603 1360.8 466.985 1374.78 467.344L1630.48 473.926Z" stroke="#123E47" stroke-width="2"/>
</g>
</svg>
